<svg width="292" height="72" viewBox="0 0 292 72" fill="none" xmlns="http://www.w3.org/2000/svg">
  <defs>
    <linearGradient id="tileGlow" x1="6" y1="4" x2="68" y2="68" gradientUnits="userSpaceOnUse">
      <stop stop-color="#132744"/>
      <stop offset="1" stop-color="#090F1C"/>
    </linearGradient>
    <linearGradient id="orbit" x1="16" y1="17" x2="60" y2="50" gradientUnits="userSpaceOnUse">
      <stop stop-color="#2B4E86"/>
      <stop offset="1" stop-color="#6FA8FF"/>
    </linearGradient>
    <linearGradient id="tip" x1="33" y1="23" x2="43" y2="42" gradientUnits="userSpaceOnUse">
      <stop stop-color="#79B0FF"/>
      <stop offset="1" stop-color="#3F6CA8"/>
    </linearGradient>
  </defs>

  <rect x="3" y="4" width="62" height="62" rx="17" fill="url(#tileGlow)" stroke="#1B3153" stroke-width="2"/>

  <path d="M17 39C19 27 27 18 38 17C49 16 58 24 60 35C62 46 55 55 45 57" stroke="url(#orbit)" stroke-width="3.2" stroke-linecap="round"/>
  <circle cx="45" cy="57" r="3.2" fill="#CFE4FF"/>

  <path d="M32.5 23.8L39.9 31.2L35.7 40.2C35.3 41 34.3 41.2 33.7 40.6L29.4 36.3C28.8 35.7 29 34.7 29.8 34.3L32.5 23.8Z" fill="url(#tip)" stroke="#82BAFF" stroke-width="0.9"/>
  <path d="M38.4 29.8L41 27.2" stroke="#BFD8FF" stroke-width="1.2" stroke-linecap="round"/>

  <text x="78" y="33" fill="#E9F2FF" font-family="Sora, Segoe UI, sans-serif" font-size="24" font-weight="700" letter-spacing="0.35">SkyScribble</text>
  <text x="78" y="52" fill="#8EA4C0" font-family="Sora, Segoe UI, sans-serif" font-size="11" font-weight="500" letter-spacing="2.1">AIR DRAWING STUDIO</text>
</svg>
